<svg width="17" height="16" viewBox="0 0 17 16" fill="none" xmlns="http://www.w3.org/2000/svg">
<path d="M7.65578 11.3676V12.7207H9.00892V11.3676H7.65578ZM5.66873 6.73522H6.70492C6.70492 6.45078 6.73743 6.18665 6.80244 5.94284C6.86746 5.69903 6.96905 5.48773 7.10721 5.30894C7.25349 5.13014 7.43229 4.98792 7.64359 4.88227C7.85489 4.77662 8.10683 4.72379 8.3994 4.72379C8.83825 4.72379 9.18365 4.84976 9.43559 5.1017C9.69565 5.35364 9.84194 5.7031 9.87444 6.15008C9.8907 6.45078 9.85413 6.70678 9.76473 6.91808C9.67533 7.12938 9.55343 7.32443 9.39902 7.50322C9.25273 7.67389 9.09019 7.84049 8.9114 8.00303C8.74073 8.15745 8.57413 8.32811 8.41159 8.51503C8.25717 8.70195 8.12308 8.91732 8.0093 9.16113C7.90365 9.39681 7.8427 9.68532 7.82644 10.0267V10.5996H8.86264V10.1242C8.86264 9.91287 8.89108 9.72595 8.94797 9.56341C9.01298 9.39275 9.09425 9.23833 9.19178 9.10017C9.29743 8.95389 9.41121 8.81979 9.53311 8.69789C9.66314 8.56786 9.79317 8.44189 9.92321 8.31998C10.0532 8.18995 10.1792 8.05586 10.3011 7.9177C10.4311 7.77954 10.5449 7.62919 10.6424 7.46665C10.74 7.30411 10.8172 7.12532 10.8741 6.93027C10.9391 6.7271 10.9716 6.49954 10.9716 6.2476C10.9716 5.85751 10.9066 5.51211 10.7765 5.21141C10.6546 4.91071 10.4799 4.65878 10.2523 4.4556C10.0248 4.2443 9.75254 4.08583 9.43559 3.98018C9.12676 3.8664 8.78137 3.80951 8.3994 3.80951C7.97679 3.80951 7.59483 3.88265 7.25349 4.02894C6.91216 4.17522 6.62365 4.38246 6.38797 4.65065C6.15229 4.91071 5.96943 5.21954 5.8394 5.57713C5.71749 5.93472 5.6606 6.32075 5.66873 6.73522Z" fill="#7C838A"/>
<circle cx="8.33398" cy="8" r="7.5" stroke="#7C838A"/>
</svg>
